<svg width="221" height="34" viewBox="0 0 221 34" fill="none" xmlns="http://www.w3.org/2000/svg">
<path d="M2.30221 32.7504H9.99801L11.5437 18.2933H15.345C15.6218 18.2933 15.8584 18.0982 15.9298 17.8307C16.4723 15.7979 17.7687 13.9926 19.3532 12.4396C19.7417 12.0588 19.4828 11.3671 18.9388 11.3671H12.4094L13.9421 0L5.9577 2.30876L4.71362 11.3671H1.38087C1.0866 11.3671 0.838371 11.5862 0.801871 11.8782L0.0819829 17.6375C0.0384506 17.9857 0.310006 18.2933 0.660984 18.2933H3.84784L2.30221 32.7504Z" fill="white"/>
<path d="M28.7187 26.1906C27.8222 26.1906 26.9258 26.0482 26.4068 25.7159L40.7971 17.6458C39.995 10.0978 34.4276 8.53125 31.1721 8.53125C23.2928 8.53125 17.8669 13.943 17.0177 20.6839C16.2156 27.4249 20.3203 32.8366 28.1997 32.8366C31.8326 32.8366 35.0882 31.5074 37.919 29.0864L34.6635 24.0069C33.1065 25.2887 30.9834 26.1906 28.7187 26.1906ZM30.3228 15.1772C31.5495 15.1772 32.3516 15.7944 32.6347 16.4115L24.2364 21.1112C24.1892 17.5508 27.1145 15.1772 30.3228 15.1772Z" fill="white"/>
<path d="M54.6093 26.0007C51.4499 26.0007 49.3915 23.6272 49.7266 20.6839C50.1096 17.7407 52.7903 15.3671 55.9497 15.3671C57.673 15.3671 59.1091 16.1267 60.0186 17.3609L64.5663 12.2815C62.6036 9.86045 59.7314 8.53125 56.4284 8.53125C48.4341 8.53125 42.9291 13.943 42.0674 20.6839C41.2537 27.4249 45.4183 32.8366 53.4126 32.8366C56.7156 32.8366 59.9229 31.5074 62.5079 29.0864L59.2048 24.0069C57.9602 25.2412 56.3327 26.0007 54.6093 26.0007Z" fill="white"/>
<path d="M80.7083 8.55891C77.9186 8.55891 75.5137 9.85758 74.167 11.6372L75.9466 0L68.2509 2.55846L63.9221 32.8336H71.6178L73.0126 20.8723C73.4936 16.9281 75.9466 15.4852 77.5338 15.4852C79.2173 15.4852 81.2855 16.2548 80.8045 20.1027L79.3135 32.8336H87.0091L88.5964 19.3331C89.5102 12.1182 85.5662 8.55891 80.7083 8.55891Z" fill="white"/>
<path d="M144.536 26.0007C141.377 26.0007 139.318 23.6272 139.653 20.6839C140.036 17.7407 142.717 15.3671 145.876 15.3671C147.6 15.3671 150.416 16.1267 151.325 17.3609L154.493 12.2815C152.53 9.86045 149.658 8.53125 146.355 8.53125C138.361 8.53125 132.856 13.943 131.994 20.6839C131.18 27.4249 135.345 32.8366 143.339 32.8366C146.642 32.8366 149.85 31.5074 152.435 29.0864L150.511 24.0069C149.267 25.2412 146.259 26.0007 144.536 26.0007Z" fill="white"/>
<path d="M164.971 26.1906C164.059 26.1906 163.146 26.0482 162.618 25.7159L177.265 17.6458C176.449 10.0978 170.782 8.53125 167.468 8.53125C159.448 8.53125 153.926 13.943 153.061 20.6839C152.245 27.4249 156.423 32.8366 164.443 32.8366C168.141 32.8366 171.454 31.5074 174.336 29.0864L171.022 24.0069C169.437 25.2887 167.276 26.1906 164.971 26.1906ZM166.604 15.1772C167.853 15.1772 168.669 15.7944 168.957 16.4115L160.409 21.1112C160.361 17.5508 163.338 15.1772 166.604 15.1772Z" fill="white"/>
<path d="M206.617 32.826H214.313L215.858 18.3793H219.62C219.914 18.3793 220.162 18.1601 220.199 17.8681L220.919 12.1089C220.962 11.7606 220.691 11.453 220.34 11.453H216.724L218.257 0.0859375L210.272 2.3947L209.028 11.453C209.028 11.453 205.585 11.453 203.457 11.453C202.965 11.453 202.675 12.0432 202.91 12.4756C203.95 14.3887 204.064 16.6566 204.05 17.7405C204.046 18.0845 204.32 18.3793 204.664 18.3793H208.162L206.617 32.826Z" fill="white"/>
<path d="M194.209 8.53125C191.42 8.53125 189.015 9.82992 187.668 11.6096L187.957 9.30083H180.261L177.423 32.8059H185.119L186.514 20.8446C186.995 16.9005 189.448 15.4575 191.035 15.4575C192.718 15.4575 194.786 16.2271 194.305 20.075L192.814 32.8059H200.51L202.097 19.3054C203.011 12.0906 199.067 8.53125 194.209 8.53125Z" fill="white"/>
<path d="M114.048 11.5131C115.086 8.56017 118.128 6.6687 121.347 7.20299L122.464 0.472545C115.123 -0.746132 108.232 4.23752 107.032 11.5131H103.067C102.852 11.5131 102.67 11.6732 102.643 11.8866L101.884 17.96C101.852 18.2145 102.051 18.4393 102.307 18.4393H105.329L103.783 32.895H111.479L112.987 18.789L113.031 18.4393H118.212C118.427 18.4393 118.608 18.2792 118.635 18.0658L119.394 11.9924C119.426 11.7379 119.227 11.5131 118.97 11.5131H114.048Z" fill="white"/>
<path d="M119.741 32.3713C119.695 32.7209 119.967 33.0312 120.319 33.0312H126.835C127.129 33.0312 127.377 32.8128 127.414 32.5214L128.834 21.3748C128.88 21.0132 128.587 20.6983 128.223 20.7185L121.71 21.0793C121.43 21.0949 121.201 21.3075 121.164 21.5856L119.741 32.3713Z" fill="white"/>
<ellipse cx="125.448" cy="14.9037" rx="3.40152" ry="3.35684" fill="#68D7D1"/>
<ellipse cx="95.434" cy="14.8959" rx="3.40152" ry="3.35684" fill="#FC7437"/>
<path d="M90.5505 32.447C90.5109 32.7971 90.7882 33.1021 91.1405 33.096L97.6559 32.9822C97.9499 32.9771 98.1941 32.7541 98.2258 32.4618L99.4378 21.2921C99.4771 20.9299 99.1786 20.6207 98.8152 20.6472L92.3092 21.1217C92.0292 21.1422 91.8034 21.3591 91.7718 21.6382L90.5505 32.447Z" fill="white"/>
</svg>
